<svg xmlns="http://www.w3.org/2000/svg" viewBox="0 0 1440 320"><path fill="#fff" fill-opacity="1" d="M0,288L13.3,250.7C26.7,213,53,139,80,117.3C106.7,96,133,128,160,128C186.7,128,213,96,240,74.7C266.7,53,293,43,320,74.7C346.7,107,373,181,400,218.7C426.7,256,453,256,480,245.3C506.7,235,533,213,560,218.7C586.7,224,613,256,640,240C666.7,224,693,160,720,128C746.7,96,773,96,800,122.7C826.7,149,853,203,880,202.7C906.7,203,933,149,960,154.7C986.7,160,1013,224,1040,224C1066.7,224,1093,160,1120,149.3C1146.7,139,1173,181,1200,176C1226.7,171,1253,117,1280,112C1306.7,107,1333,149,1360,192C1386.7,235,1413,277,1427,298.7L1440,320L1440,320L1426.7,320C1413.3,320,1387,320,1360,320C1333.3,320,1307,320,1280,320C1253.3,320,1227,320,1200,320C1173.3,320,1147,320,1120,320C1093.3,320,1067,320,1040,320C1013.3,320,987,320,960,320C933.3,320,907,320,880,320C853.3,320,827,320,800,320C773.3,320,747,320,720,320C693.3,320,667,320,640,320C613.3,320,587,320,560,320C533.3,320,507,320,480,320C453.3,320,427,320,400,320C373.3,320,347,320,320,320C293.3,320,267,320,240,320C213.3,320,187,320,160,320C133.3,320,107,320,80,320C53.3,320,27,320,13,320L0,320Z"></path></svg>